<?xml version="1.0" standalone="no"?>
<!DOCTYPE svg PUBLIC "-//W3C//DTD SVG 20010904//EN"
 "http://www.w3.org/TR/2001/REC-SVG-20010904/DTD/svg10.dtd">
<svg version="1.0" xmlns="http://www.w3.org/2000/svg"
 width="558.000000pt" height="558.000000pt" viewBox="0 0 558.000000 558.000000"
 preserveAspectRatio="xMidYMid meet">
<metadata>
Created by potrace 1.11, written by Peter Selinger 2001-2013
</metadata>
<g transform="translate(0.000000,558.000000) scale(0.100000,-0.100000)"
fill="#000000" stroke="none">
<path d="M2690 4287 c-66 -18 -105 -45 -131 -91 -27 -47 -29 -54 -33 -117 -2
-25 -6 -51 -10 -58 -4 -6 -3 -11 2 -11 4 0 9 -12 9 -27 2 -48 10 -101 18 -113
4 -6 9 -21 11 -33 12 -70 17 -87 25 -87 5 0 9 -8 9 -19 0 -18 11 -47 47 -128
9 -21 17 -40 17 -43 3 -13 91 -188 107 -211 10 -14 15 -29 12 -33 -4 -4 -1 -4
7 -1 8 3 31 39 50 80 19 41 39 74 43 75 5 0 6 4 2 9 -3 5 2 17 11 25 8 9 13
16 10 16 -3 0 8 28 24 63 17 34 30 68 30 75 0 6 4 12 10 12 5 0 7 7 4 15 -4 8
-1 15 7 15 7 0 10 3 6 6 -3 4 0 22 9 42 47 114 69 282 50 382 -10 51 -55 111
-104 138 -51 29 -172 38 -242 19z"/>
<path d="M2023 4009 c-80 -15 -182 -100 -224 -187 -44 -90 -18 -184 74 -273
63 -61 83 -79 93 -79 3 0 18 -9 33 -19 37 -27 143 -81 157 -81 7 0 14 -4 16
-8 3 -9 183 -80 230 -91 4 -1 23 -8 42 -16 18 -8 48 -17 66 -20 17 -3 37 -7
43 -8 7 -1 10 5 8 13 -2 8 -5 22 -6 30 -2 8 -4 15 -5 15 -1 0 -3 7 -5 15 -8
36 -61 187 -85 245 -143 336 -288 491 -437 464z"/>
<path d="M3475 4010 c-50 -11 -94 -39 -150 -96 -49 -49 -128 -164 -125 -180 1
-4 -2 -10 -7 -13 -15 -11 -43 -68 -36 -75 3 -3 1 -6 -5 -6 -7 0 -12 -4 -12 -9
0 -5 -10 -31 -22 -58 -12 -26 -22 -51 -23 -55 -2 -5 -4 -10 -5 -13 -1 -3 -3
-8 -5 -12 -1 -5 -7 -20 -13 -35 -13 -31 -46 -142 -43 -146 1 -1 -5 -15 -12
-30 -15 -31 -16 -52 -2 -52 31 1 264 77 280 91 5 5 15 9 23 9 8 0 66 26 130
57 176 86 291 181 328 269 18 44 20 107 4 149 -6 17 -10 30 -8 30 3 0 -46 57
-82 94 -57 60 -150 95 -215 81z"/>
<path d="M1659 3254 c-19 -6 -37 -12 -42 -12 -17 -3 -76 -49 -70 -55 3 -4 2
-7 -4 -7 -25 0 -48 -84 -48 -175 0 -120 24 -177 96 -224 27 -17 53 -29 58 -26
5 3 12 1 15 -3 8 -13 182 -7 241 8 45 11 147 43 185 57 8 3 20 7 26 8 25 6
290 130 302 142 7 7 25 16 38 19 24 6 24 7 8 25 -9 10 -20 16 -25 14 -4 -3
-10 -1 -14 5 -6 10 -202 109 -220 110 -5 1 -20 8 -32 16 -13 8 -23 12 -23 9 0
-3 -9 -1 -21 6 -39 20 -154 59 -176 59 -13 0 -23 4 -23 8 0 5 -6 9 -12 9 -7 0
-35 4 -63 8 -80 12 -160 12 -196 -1z"/>
<path d="M2681 3242 c-68 -34 -120 -93 -141 -159 -15 -49 -16 -75 -6 -143 5
-35 41 -91 82 -129 24 -22 44 -38 44 -35 0 2 14 -3 31 -12 28 -14 117 -20 159
-11 61 15 139 77 160 128 7 16 16 29 21 29 5 0 8 3 8 8 -1 4 0 9 1 12 6 15 4
132 -2 136 -5 3 -8 12 -8 20 0 28 -62 109 -104 136 -75 48 -172 56 -245 20z"/>
<path d="M3716 3263 c-2 -2 -12 -5 -22 -7 -11 -2 -39 -9 -64 -16 -25 -7 -49
-13 -55 -15 -5 -1 -23 -7 -38 -13 -16 -7 -32 -12 -36 -12 -5 0 -26 -8 -47 -17
-22 -9 -41 -17 -44 -18 -35 -9 -260 -118 -260 -127 0 -5 -4 -6 -10 -3 -5 3
-10 1 -10 -4 0 -6 -7 -11 -15 -11 -24 0 -18 -19 10 -32 14 -6 25 -16 25 -21 0
-6 3 -8 6 -5 3 3 56 -19 117 -50 62 -31 115 -57 120 -58 4 -1 10 -3 15 -4 4
-1 10 -2 15 -1 4 0 7 -3 7 -7 0 -5 6 -9 13 -10 6 0 49 -14 95 -30 45 -16 82
-27 82 -25 0 3 6 0 13 -6 8 -6 16 -9 18 -6 3 2 27 -1 54 -8 61 -16 165 -15
223 2 96 27 155 125 151 251 -5 135 -56 218 -154 245 -29 9 -202 15 -209 8z"/>
<path d="M2550 2778 c0 -6 -3 -9 -6 -5 -3 3 -27 -1 -52 -9 -26 -8 -58 -17 -71
-20 -13 -3 -37 -12 -52 -20 -16 -8 -30 -14 -31 -13 -2 0 -16 -4 -31 -10 -16
-6 -31 -11 -33 -11 -20 0 -261 -120 -308 -153 -51 -37 -151 -127 -140 -127 4
0 -1 -9 -11 -20 -10 -11 -23 -41 -30 -67 -21 -83 9 -159 94 -242 184 -175 366
-78 544 292 26 53 47 101 47 106 0 4 9 30 19 57 20 51 30 79 32 92 0 4 5 12
11 19 5 7 7 17 3 23 -3 5 -1 10 4 10 6 0 10 3 10 8 -1 4 0 9 1 12 1 3 3 12 5
20 1 8 6 27 10 43 5 17 3 27 -4 27 -6 0 -11 -5 -11 -12z"/>
<path d="M3016 2742 c8 -26 16 -54 18 -62 2 -8 14 -42 26 -75 12 -33 28 -79
35 -101 7 -23 18 -50 23 -60 6 -11 33 -65 60 -121 79 -160 154 -253 241 -298
92 -49 182 -29 271 59 58 56 68 69 86 113 57 134 -32 270 -258 395 -82 45
-271 128 -291 128 -5 0 -23 6 -40 14 -34 15 -89 33 -126 41 -11 3 -30 7 -40 9
-19 4 -19 3 -5 -42z"/>
<path d="M2767 2664 c-9 -19 -16 -37 -16 -40 0 -4 -4 -10 -9 -13 -11 -7 -82
-154 -82 -169 0 -6 -5 -12 -10 -14 -6 -2 -12 -13 -13 -26 0 -12 -5 -22 -10
-22 -4 0 -5 -4 -2 -10 3 -5 1 -10 -4 -10 -6 0 -10 -3 -9 -7 2 -8 -21 -81 -31
-98 -6 -10 -6 -13 -16 -57 -3 -15 -10 -39 -15 -53 -5 -13 -13 -46 -16 -72 -29
-195 22 -315 149 -351 12 -3 63 -6 112 -6 93 0 137 14 190 61 44 40 65 113 60
215 -3 71 -10 111 -39 230 -3 9 -9 25 -14 35 -6 10 -10 20 -10 23 -1 10 -14
46 -23 62 -5 10 -9 22 -9 28 0 5 -23 58 -52 117 -29 59 -51 111 -50 116 1 4
-1 7 -6 7 -4 0 -14 15 -21 33 -25 55 -36 60 -54 21z"/>
</g>
</svg>
